<?xml version="1.0" encoding="utf-8"?>
<!-- Generator: Adobe Illustrator 16.0.0, SVG Export Plug-In . SVG Version: 6.00 Build 0)  -->
<!DOCTYPE svg PUBLIC "-//W3C//DTD SVG 1.1//EN" "http://www.w3.org/Graphics/SVG/1.1/DTD/svg11.dtd">
<svg version="1.1" id="Capa_1" xmlns="http://www.w3.org/2000/svg" xmlns:xlink="http://www.w3.org/1999/xlink" x="0px" y="0px"
	 width="512px" height="512px" viewBox="0 0 512 512" enable-background="new 0 0 512 512" xml:space="preserve">
<g>
	<g>
		<path fill="#D6B700" d="M256,507.5c138.673,0,251.5-112.818,251.5-251.5C507.5,117.319,394.673,4.5,256,4.5S4.5,117.319,4.5,256
			C4.5,394.682,117.327,507.5,256,507.5z M256,35.454c121.61,0,220.546,98.936,220.546,220.546
			c0,121.609-98.936,220.546-220.546,220.546c-121.61,0-220.546-98.937-220.546-220.546C35.454,134.39,134.39,35.454,256,35.454z"/>
		<circle fill="#D6B700" cx="260.009" cy="342.323" r="25.885"/>
		<path fill="#D6B700" d="M254.7,277.993c8.543,0,15.477-6.935,15.477-15.478V130.962c0-8.543-6.934-15.477-15.477-15.477
			s-15.477,6.934-15.477,15.477v131.556C239.223,271.059,246.157,277.993,254.7,277.993z"/>
	</g>
</g>
</svg>
