<?xml version="1.0" encoding="utf-8"?>
<!-- Generator: Adobe Illustrator 16.0.0, SVG Export Plug-In . SVG Version: 6.00 Build 0)  -->
<!DOCTYPE svg PUBLIC "-//W3C//DTD SVG 1.1//EN" "http://www.w3.org/Graphics/SVG/1.1/DTD/svg11.dtd">
<svg version="1.1" id="Capa_1" xmlns="http://www.w3.org/2000/svg" xmlns:xlink="http://www.w3.org/1999/xlink" x="0px" y="0px"
	 width="250px" height="250px" viewBox="0 0 250 250" enable-background="new 0 0 250 250" xml:space="preserve">
<g transform="translate(1 1)">
	<g>
		<g>
			<path fill="#D80027" d="M212.387,35.613C163.568-13.205,84.42-13.205,35.613,35.614c-48.817,48.817-48.817,127.966,0.002,176.772
				c48.806,48.818,127.954,48.818,176.772,0C261.205,163.58,261.205,84.432,212.387,35.613z M197.656,197.654
				c-40.683,40.683-106.639,40.683-147.31,0.002C9.664,156.982,9.664,91.027,50.345,50.345c40.672-40.682,106.628-40.682,147.31,0
				S238.337,156.982,197.656,197.654z"/>
			<path fill="#D80027" d="M175.559,72.441c-4.068-4.068-10.664-4.068-14.731,0l-36.829,36.829L87.17,72.441
				c-4.068-4.068-10.664-4.068-14.731,0s-4.068,10.664,0,14.731l36.829,36.829l-36.815,36.815c-4.068,4.068-4.068,10.664,0,14.731
				s10.664,4.067,14.731,0l36.815-36.815l36.826,36.826c4.068,4.068,10.664,4.068,14.731,0s4.067-10.664,0-14.731l-36.825-36.826
				l36.828-36.829C179.627,83.105,179.627,76.51,175.559,72.441z"/>
		</g>
	</g>
</g>
</svg>
